<?xml version="1.0" encoding="utf-8"?>
<!-- Generator: Adobe Illustrator 15.0.0, SVG Export Plug-In . SVG Version: 6.00 Build 0)  -->
<!DOCTYPE svg PUBLIC "-//W3C//DTD SVG 1.1//EN" "http://www.w3.org/Graphics/SVG/1.1/DTD/svg11.dtd">
<svg version="1.1"
	 id="svg2" sodipodi:docname="youtube.svg" inkscape:version="0.47 r22583" sodipodi:version="0.32" inkscape:output_extension="org.inkscape.output.svg.inkscape" xmlns:inkscape="http://www.inkscape.org/namespaces/inkscape" xmlns:sodipodi="http://sodipodi.sourceforge.net/DTD/sodipodi-0.dtd" xmlns:rdf="http://www.w3.org/1999/02/22-rdf-syntax-ns#" xmlns:svg="http://www.w3.org/2000/svg" xmlns:cc="http://creativecommons.org/ns#" xmlns:dc="http://purl.org/dc/elements/1.1/"
	 xmlns="http://www.w3.org/2000/svg" xmlns:xlink="http://www.w3.org/1999/xlink" x="0px" y="0px" width="256px" height="256px"
	 viewBox="0 0 256 256" enable-background="new 0 0 256 256" xml:space="preserve">
<sodipodi:namedview  pagecolor="#ffffff" id="base" inkscape:window-height="682" inkscape:document-units="px" showgrid="false" inkscape:cx="112.30587" inkscape:zoom="0.12374369" inkscape:pageshadow="2" inkscape:pageopacity="0.0" bordercolor="#666666" inkscape:window-width="685" inkscape:window-y="298" borderopacity="1.0" inkscape:cy="64.459739" inkscape:window-maximized="0" inkscape:window-x="1" inkscape:current-layer="layer1">
	</sodipodi:namedview>
<g id="layer1" transform="translate(-373.642,-318.344)" inkscape:groupmode="layer" inkscape:label="Layer 1">
	
		<path id="rect1942" inkscape:export-xdpi="7.7063322" inkscape:export-ydpi="7.7063322" inkscape:export-filename="C:\Documents and Settings\Molumen\Desktop\path3511111.png" fill="#3AA8DB" d="
		M583.66,328.849H419.625c-19.599,0-35.487,15.888-35.487,35.487v164.015c0,19.599,15.888,35.486,35.487,35.486h164.033
		c19.603,0,35.487-15.888,37.487-34.819V365.004C619.146,344.738,603.257,328.849,583.66,328.849z"/>
	
		<linearGradient id="path1950_1_" gradientUnits="userSpaceOnUse" x1="-2714.27" y1="-1026.9822" x2="-2765.9675" y2="-1177.6738" gradientTransform="matrix(-0.5915 0 0 -0.5915 -1161.6178 -313.1405)">
		<stop  offset="0" style="stop-color:#FFFFFF"/>
		<stop  offset="1" style="stop-color:#FFFFFF;stop-opacity:0"/>
	</linearGradient>
	
		<path id="path1950" inkscape:export-xdpi="7.7063322" inkscape:export-ydpi="7.7063322" inkscape:export-filename="C:\Documents and Settings\Molumen\Desktop\path3511111.png" sodipodi:nodetypes="ccccsssc" opacity="0.8326" fill="url(#path1950_1_)" enable-background="new    " d="
		M557.056,338.895H446.227c-29.337,0-52.955,23.81-52.955,53.385v108.126c0.95,23.088,4.603,8.492,11.555-17.074
		c8.081-29.713,34.396-55.682,66.445-75.146c24.461-14.855,51.841-24.341,101.679-25.244
		C601.216,382.432,598.721,346.26,557.056,338.895z"/>
</g>
<g>
	<title>Layer 1</title>
	<g id="layer1_1_">
		<path id="path2830" fill="#FFFFFF" d="M2.464,15.109c0,0-3.17,19.374,4.428,27.713c7.599,8.341,53.411,53.969,53.411,53.969
			s-2.206,38.501,21.08,52.728c-8.088,27.719-12.739,46.076-12.739,46.076c-8.646-1.188-12.383-0.363-18.38,1.764l1.365,4.487
			c4.699-1.37,9.543-3.272,16.772-1.489c6.009,7.901,6.045,19.495,5.399,27.905l4.64,0.509c0.898-10.046,0.499-16.436-2.79-25.131
			c6.798,4.451,10.397,9.557,12.92,18.7l5.187-1.646c-5.134-13.123-8.595-17.211-20.443-23.826l12.982-43.404
			c6.721,4.331,13.953,6.582,21.322,8.316l-4.429,27.992c-6.625-1.02-12.876-0.568-18.623,1.939l1.305,4.4
			c4.959-2.107,11.653-3.008,17.046-1.764c5.776,10.341,5.792,17.945,5.217,28.747l4.549,0.578
			c0.946-10.536,0.782-16.827-3.245-26.649c6.757,3.862,10.9,8.616,13.618,19.456l4.673-1.217
			c-3.005-12.26-8.51-18.337-19.383-24.041l4.671-27.954c0,0,41.733,11.832,72.549-36.79c8.917-14.067,13.941-23.171,21.807-29.99
			c16.404-14.221,39.488-15.575,39.461-15.39l-33.817-1.973c0,0-5.403-7.35-11.04-10.048c-5.639-2.698-14.934-6.134-28.904,0.243
			c-13.973,6.377-14.236,9.563-25.266,15.451s-18.613,4.526-27.935,3.43C81.236,83.66,2.464,15.109,2.464,15.109z M183.808,74.604
			c4.142,0,7.491,3.354,7.491,7.498c0,4.143-3.35,7.497-7.491,7.497c-4.139,0-7.491-3.354-7.491-7.497
			C176.316,77.958,179.669,74.604,183.808,74.604z"/>
	</g>
</g>
</svg>
